<svg width="72" height="102" viewBox="0 0 72 102" xmlns="http://www.w3.org/2000/svg"><title>hdd</title><defs><linearGradient x1="50%" y1="0%" x2="50%" y2="100%" id="a"><stop stop-color="#D0DADD" offset="0%"/><stop stop-color="#86867F" offset="100%"/></linearGradient><filter x="-50%" y="-50%" width="200%" height="200%" filterUnits="objectBoundingBox" id="b"><feOffset dy=".6" in="SourceAlpha" result="shadowOffsetInner1"/><feGaussianBlur stdDeviation=".5" in="shadowOffsetInner1" result="shadowBlurInner1"/><feComposite in="shadowBlurInner1" in2="SourceAlpha" operator="arithmetic" k2="-1" k3="1" result="shadowInnerInner1"/><feColorMatrix values="0 0 0 0 1 0 0 0 0 1 0 0 0 0 1 0 0 0 0.42 0" in="shadowInnerInner1" result="shadowMatrixInner1"/><feMerge><feMergeNode in="SourceGraphic"/><feMergeNode in="shadowMatrixInner1"/></feMerge></filter><linearGradient x1="56.523%" y1="43.99%" x2="45.267%" y2="43.99%" id="c"><stop stop-color="#DFDDDD" offset="0%"/><stop stop-color="#616161" offset="100%"/></linearGradient><linearGradient x1="50%" y1="0%" x2="50%" y2="100%" id="d"><stop stop-color="#FFF" offset="0%"/><stop stop-color="#D8D8D8" offset="100%"/></linearGradient><filter x="-50%" y="-50%" width="200%" height="200%" filterUnits="objectBoundingBox" id="e"><feOffset dy=".3" in="SourceAlpha" result="shadowOffsetOuter1"/><feGaussianBlur stdDeviation=".25" in="shadowOffsetOuter1" result="shadowBlurOuter1"/><feColorMatrix values="0 0 0 0 0 0 0 0 0 0 0 0 0 0 0 0 0 0 0.080822577 0" in="shadowBlurOuter1" result="shadowMatrixOuter1"/><feMerge><feMergeNode in="shadowMatrixOuter1"/><feMergeNode in="SourceGraphic"/></feMerge></filter></defs><g fill="none" fill-rule="evenodd"><rect fill="url(#a)" filter="url(#b)" x="1" y="1" width="70" height="100" rx="3"/><path d="M1.5 3.993C1.5 2.613 2.615 1.5 4.008 1.5h63.984c1.386 0 2.508 1.115 2.508 2.493v94.014c0 1.38-1.115 2.493-2.508 2.493H4.008c-1.386 0-2.508-1.115-2.508-2.493V3.993zm-1 0v94.014c0 1.93 1.57 3.493 3.508 3.493h63.984c1.944 0 3.508-1.56 3.508-3.493V3.993C71.5 2.063 69.93.5 67.992.5H4.008C2.064.5.5 2.06.5 3.993z" fill="#5A5A5A"/><path d="M54.003 36.977c1.043-.53 1.818-1.257 2.32-2.135.315-.55.505-1.124.6-1.72.063-.393.077-.68.077-1.122V5.002C57 2.797 55.215 1 53.01 1H6.99C4.783 1 3 2.794 3 5.002V31c0 1.156.063 1.697.45 2.484.46.93 1.254 1.68 2.508 2.447l.255.157.29.075c.51.132.79.5.887 1.21.1.73-.085 1.57-.314 1.864C3.16 44.282 1 50.48 1 57c0 16.016 12.984 29 29 29s29-12.984 29-29c0-6.614-2.223-12.894-6.242-17.975-.548-.694-.345-1.586.842-1.895l.21-.055.193-.098zm.454.89l-.194.1-.2.076-.212.055c-.43.112-.44.138-.307.306C57.73 43.697 60 50.204 60 57c0 16.57-13.43 30-30 30S0 73.57 0 57c0-6.7 2.208-13.12 6.286-18.377.064-.083.174-.678.113-1.115-.047-.332-.065-.356-.148-.378l-.29-.074-.144-.038-.128-.078-.254-.156c-1.43-.875-2.34-1.755-2.882-2.858C2.11 33.023 2 32.38 2 31V5.002C2 2.24 4.23 0 6.99 0h46.02C55.765 0 58 2.243 58 5.002V32c0 .53-.02.854-.09 1.282-.117.732-.353 1.418-.72 2.056-.606 1.063-1.533 1.92-2.733 2.53z" opacity=".697" transform="translate(6 8)" fill="url(#c)"/><path d="M59.096 43.195C61 42.225 61 40.677 61 40V13.002C61 11.9 60.11 11 59.01 11H12.99c-1.1 0-1.99.896-1.99 2.002V39c0 1.22 0 2 2.002 3.226 2.998.774 2.768 4.8 1.654 6.236C11.11 53.032 9 58.77 9 65c0 14.912 12.088 27 27 27s27-12.088 27-27c0-6.32-2.172-12.134-5.81-16.735-1.092-1.38-1.19-4.265 1.906-5.07z" fill="url(#d)" filter="url(#e)"/><g stroke="#979797" stroke-linecap="square"><path d="M16.43 32.5h38.2M16.43 35.5h38.2M16.43 38.5h38.2"/></g><g transform="translate(4 94)"><circle fill="#000" cx="2" cy="2" r="2"/><path d="M1.5 1.5V.7h1v.8h.8v1h-.8v.8h-1v-.8H.7v-1h.8z" fill="#979797"/></g><g transform="translate(4 46)"><circle fill="#000" cx="2" cy="2" r="2"/><path d="M1.5 1.5V.7h1v.8h.8v1h-.8v.8h-1v-.8H.7v-1h.8z" fill="#979797"/></g><g transform="translate(4 4)"><circle fill="#000" cx="2" cy="2" r="2"/><path d="M1.5 1.5V.7h1v.8h.8v1h-.8v.8h-1v-.8H.7v-1h.8z" fill="#979797"/></g><g transform="translate(64 4)"><circle fill="#000" cx="2" cy="2" r="2"/><path d="M1.5 1.5V.7h1v.8h.8v1h-.8v.8h-1v-.8H.7v-1h.8z" fill="#979797"/></g><g transform="translate(64 46)"><circle fill="#000" cx="2" cy="2" r="2"/><path d="M1.5 1.5V.7h1v.8h.8v1h-.8v.8h-1v-.8H.7v-1h.8z" fill="#979797"/></g><g transform="translate(64 94)"><circle fill="#000" cx="2" cy="2" r="2"/><path d="M1.5 1.5V.7h1v.8h.8v1h-.8v.8h-1v-.8H.7v-1h.8z" fill="#979797"/></g><g transform="translate(19 50)" fill="#C7C7C7"><path d="M5 21c2.76 0 5-2.24 5-5s-2.24-5-5-5-5 2.24-5 5 2.24 5 5 5zM6.67 8.108c1.38 2.39 4.44 3.21 6.83 1.83 2.39-1.38 3.21-4.44 1.83-6.83-1.38-2.392-4.44-3.21-6.83-1.83-2.39 1.38-3.21 4.438-1.83 6.83zm12-5c-1.38 2.39-.56 5.45 1.83 6.83s5.45.56 6.83-1.83c1.38-2.392.56-5.45-1.83-6.83s-5.45-.562-6.83 1.83zM29 11c-2.76 0-5 2.24-5 5s2.24 5 5 5 5-2.24 5-5-2.24-5-5-5zm-1.67 12.892c-1.38-2.39-4.44-3.21-6.83-1.83-2.39 1.38-3.21 4.44-1.83 6.83 1.38 2.392 4.44 3.21 6.83 1.83 2.39-1.38 3.21-4.438 1.83-6.83zm-12 5c1.38-2.39.56-5.45-1.83-6.83s-5.45-.56-6.83 1.83c-1.38 2.392-.56 5.45 1.83 6.83s5.45.562 6.83-1.83z"/><ellipse cx="17" cy="16" rx="5" ry="5"/></g><path d="M20.185 27h2.91v-3.99h3.735V27h2.91V16.5h-2.91v3.93h-3.735V16.5h-2.91V27zm10.79 0h3.99c3.78 0 5.985-2.25 5.985-5.28v-.03c0-3.03-2.175-5.19-5.925-5.19h-4.05V27zm2.91-2.58v-5.34h1.185c1.74 0 2.895.975 2.895 2.655v.03c0 1.695-1.155 2.655-2.895 2.655h-1.185zm7.94 2.58h3.99c3.78 0 5.985-2.25 5.985-5.28v-.03c0-3.03-2.175-5.19-5.925-5.19h-4.05V27zm2.91-2.58v-5.34h1.185c1.74 0 2.895.975 2.895 2.655v.03c0 1.695-1.155 2.655-2.895 2.655h-1.185z" fill="#4A4A4A"/></g></svg>