<?xml version="1.0" encoding="UTF-8" standalone="no"?>
<svg width="72px" height="102px" viewBox="0 0 72 102" version="1.1" xmlns="http://www.w3.org/2000/svg" xmlns:xlink="http://www.w3.org/1999/xlink">
    <!-- Generator: Sketch 3.6.1 (26313) - http://www.bohemiancoding.com/sketch -->
    <title>ssd</title>
    <desc>Created with Sketch.</desc>
    <defs>
        <filter x="-50%" y="-50%" width="200%" height="200%" filterUnits="objectBoundingBox" id="filter-1">
            <feOffset dx="0" dy="0.599999964" in="SourceAlpha" result="shadowOffsetInner1"></feOffset>
            <feGaussianBlur stdDeviation="0.5" in="shadowOffsetInner1" result="shadowBlurInner1"></feGaussianBlur>
            <feComposite in="shadowBlurInner1" in2="SourceAlpha" operator="arithmetic" k2="-1" k3="1" result="shadowInnerInner1"></feComposite>
            <feColorMatrix values="0 0 0 0 1   0 0 0 0 1   0 0 0 0 1  0 0 0 0.42 0" in="shadowInnerInner1" type="matrix" result="shadowMatrixInner1"></feColorMatrix>
            <feMerge>
                <feMergeNode in="SourceGraphic"></feMergeNode>
                <feMergeNode in="shadowMatrixInner1"></feMergeNode>
            </feMerge>
        </filter>
    </defs>
    <g id="Page-1" stroke="none" stroke-width="1" fill="none" fill-rule="evenodd">
        <g id="ssd">
            <rect id="case" fill="#6C6C6C" filter="url(#filter-1)" x="1" y="1" width="70" height="100" rx="3"></rect>
            <path d="M1.5,3.99280137 C1.5,2.61262445 2.61542993,1.5 4.0078125,1.5 L67.9921875,1.5 C69.378485,1.5 70.5,2.61542585 70.5,3.99280137 L70.5,98.0071986 C70.5,99.3873755 69.3845701,100.5 67.9921875,100.5 L4.0078125,100.5 C2.62151501,100.5 1.5,99.3845742 1.5,98.0071986 L1.5,3.99280137 L1.5,3.99280137 Z M0.5,3.99280137 L0.5,98.0071986 C0.5,99.9380813 2.07044531,101.5 4.0078125,101.5 L67.9921875,101.5 C69.9362919,101.5 71.5,99.9402248 71.5,98.0071986 L71.5,3.99280137 C71.5,2.06191871 69.9295547,0.5 67.9921875,0.5 L4.0078125,0.5 C2.06370814,0.5 0.5,2.05977517 0.5,3.99280137 L0.5,3.99280137 Z" id="border" fill="#444444"></path>
            <g id="screws" transform="translate(4.000000, 4.000000)">
                <g id="screw-copy-5" transform="translate(0.000000, 90.000000)">
                    <circle id="Oval-1" fill="#000000" cx="2" cy="2" r="2"></circle>
                    <path d="M1.5,1.5 L1.5,1.2 L1.5,0.7 L2.5,0.7 L2.5,1.2 L2.5,1.5 L2.8,1.5 L3.3,1.5 L3.3,2.5 L2.8,2.5 L2.5,2.5 L2.5,2.8 L2.5,3.3 L1.5,3.3 L1.5,2.8 L1.5,2.5 L1.2,2.5 L0.7,2.5 L0.7,1.5 L1.2,1.5 L1.5,1.5 L1.5,1.5 Z" id="Combined-Shape" fill="#979797"></path>
                </g>
                <g id="screw-copy-6" transform="translate(0.000000, 42.000000)">
                    <circle id="Oval-1" fill="#000000" cx="2" cy="2" r="2"></circle>
                    <path d="M1.5,1.5 L1.5,1.2 L1.5,0.7 L2.5,0.7 L2.5,1.2 L2.5,1.5 L2.8,1.5 L3.3,1.5 L3.3,2.5 L2.8,2.5 L2.5,2.5 L2.5,2.8 L2.5,3.3 L1.5,3.3 L1.5,2.8 L1.5,2.5 L1.2,2.5 L0.7,2.5 L0.7,1.5 L1.2,1.5 L1.5,1.5 L1.5,1.5 Z" id="Combined-Shape" fill="#979797"></path>
                </g>
                <g id="screw-copy-7">
                    <circle id="Oval-1" fill="#000000" cx="2" cy="2" r="2"></circle>
                    <path d="M1.5,1.5 L1.5,1.2 L1.5,0.7 L2.5,0.7 L2.5,1.2 L2.5,1.5 L2.8,1.5 L3.3,1.5 L3.3,2.5 L2.8,2.5 L2.5,2.5 L2.5,2.8 L2.5,3.3 L1.5,3.3 L1.5,2.8 L1.5,2.5 L1.2,2.5 L0.7,2.5 L0.7,1.5 L1.2,1.5 L1.5,1.5 L1.5,1.5 Z" id="Combined-Shape" fill="#979797"></path>
                </g>
                <g id="screw-copy-8" transform="translate(60.000000, 0.000000)">
                    <circle id="Oval-1" fill="#000000" cx="2" cy="2" r="2"></circle>
                    <path d="M1.5,1.5 L1.5,1.2 L1.5,0.7 L2.5,0.7 L2.5,1.2 L2.5,1.5 L2.8,1.5 L3.3,1.5 L3.3,2.5 L2.8,2.5 L2.5,2.5 L2.5,2.8 L2.5,3.3 L1.5,3.3 L1.5,2.8 L1.5,2.5 L1.2,2.5 L0.7,2.5 L0.7,1.5 L1.2,1.5 L1.5,1.5 L1.5,1.5 Z" id="Combined-Shape" fill="#979797"></path>
                </g>
                <g id="screw-copy-9" transform="translate(60.000000, 42.000000)">
                    <circle id="Oval-1" fill="#000000" cx="2" cy="2" r="2"></circle>
                    <path d="M1.5,1.5 L1.5,1.2 L1.5,0.7 L2.5,0.7 L2.5,1.2 L2.5,1.5 L2.8,1.5 L3.3,1.5 L3.3,2.5 L2.8,2.5 L2.5,2.5 L2.5,2.8 L2.5,3.3 L1.5,3.3 L1.5,2.8 L1.5,2.5 L1.2,2.5 L0.7,2.5 L0.7,1.5 L1.2,1.5 L1.5,1.5 L1.5,1.5 Z" id="Combined-Shape" fill="#979797"></path>
                </g>
                <g id="screw-copy-10" transform="translate(60.000000, 90.000000)">
                    <circle id="Oval-1" fill="#000000" cx="2" cy="2" r="2"></circle>
                    <path d="M1.5,1.5 L1.5,1.2 L1.5,0.7 L2.5,0.7 L2.5,1.2 L2.5,1.5 L2.8,1.5 L3.3,1.5 L3.3,2.5 L2.8,2.5 L2.5,2.5 L2.5,2.8 L2.5,3.3 L1.5,3.3 L1.5,2.8 L1.5,2.5 L1.2,2.5 L0.7,2.5 L0.7,1.5 L1.2,1.5 L1.5,1.5 L1.5,1.5 Z" id="Combined-Shape" fill="#979797"></path>
                </g>
            </g>
            <g id="Sticker" transform="translate(12.000000, 10.000000)">
                <rect id="sticker-bg" fill="#EFEFEF" x="0" y="0" width="49" height="82" rx="2"></rect>
                <path d="M14.5499999,16.18 C17.0999999,16.18 18.7949999,14.905 18.7949999,12.76 L18.7949999,12.73 C18.7949999,10.765 17.2949999,9.985 14.8799999,9.46 C13.4249999,9.13 13.0649999,8.92 13.0649999,8.44 L13.0649999,8.41 C13.0649999,8.035 13.4099999,7.735 14.1149999,7.735 C15.0449999,7.735 16.0949999,8.095 17.0549999,8.77 L18.5099999,6.715 C17.3699999,5.8 15.9749999,5.32 14.1899999,5.32 C11.6699999,5.32 10.1249999,6.73 10.1249999,8.68 L10.1249999,8.71 C10.1249999,10.87 11.8499999,11.5 14.0849999,12.01 C15.5099999,12.34 15.8549999,12.58 15.8549999,13.015 L15.8549999,13.045 C15.8549999,13.495 15.4349999,13.765 14.6549999,13.765 C13.4399999,13.765 12.2849999,13.33 11.2499999,12.505 L9.62999991,14.44 C10.9199999,15.595 12.6899999,16.18 14.5499999,16.18 L14.5499999,16.18 Z M23.555,16.18 C26.105,16.18 27.8,14.905 27.8,12.76 L27.8,12.73 C27.8,10.765 26.3,9.985 23.885,9.46 C22.43,9.13 22.07,8.92 22.07,8.44 L22.07,8.41 C22.07,8.035 22.415,7.735 23.12,7.735 C24.05,7.735 25.1,8.095 26.06,8.77 L27.515,6.715 C26.375,5.8 24.98,5.32 23.195,5.32 C20.675,5.32 19.13,6.73 19.13,8.68 L19.13,8.71 C19.13,10.87 20.855,11.5 23.09,12.01 C24.515,12.34 24.86,12.58 24.86,13.015 L24.86,13.045 C24.86,13.495 24.44,13.765 23.66,13.765 C22.445,13.765 21.29,13.33 20.255,12.505 L18.635,14.44 C19.925,15.595 21.695,16.18 23.555,16.18 L23.555,16.18 Z M28.585,16 L32.575,16 C36.355,16 38.56,13.75 38.56,10.72 L38.56,10.69 C38.56,7.66 36.385,5.5 32.635,5.5 L28.585,5.5 L28.585,16 Z M31.495,13.42 L31.495,8.08 L32.68,8.08 C34.42,8.08 35.575,9.055 35.575,10.735 L35.575,10.765 C35.575,12.46 34.42,13.42 32.68,13.42 L31.495,13.42 Z" id="SSD" fill="#4A4A4A"></path>
                <g id="Logo" transform="translate(7.500000, 40.000000)" fill="#C7C7C7">
                    <path d="M5,21 C7.76142375,21 10,18.7614237 10,16 C10,13.2385763 7.76142375,11 5,11 C2.23857625,11 6.21724894e-15,13.2385763 6.21724894e-15,16 C6.21724894e-15,18.7614237 2.23857625,21 5,21 L5,21 Z M6.66987298,8.10769515 C8.05058486,10.4991583 11.1085369,11.318534 13.5,9.93782217 C15.8914631,8.5571103 16.7108389,5.49915827 15.330127,3.10769515 C13.9494151,0.716232037 10.8914631,-0.103143739 8.5,1.27756814 C6.10853688,2.65828001 5.28916111,5.71623204 6.66987298,8.10769515 L6.66987298,8.10769515 Z M18.669873,3.10769515 C17.2891611,5.49915827 18.1085369,8.5571103 20.5,9.93782217 C22.8914631,11.318534 25.9494151,10.4991583 27.330127,8.10769515 C28.7108389,5.71623204 27.8914631,2.65828001 25.5,1.27756814 C23.1085369,-0.103143739 20.0505849,0.716232037 18.669873,3.10769515 L18.669873,3.10769515 Z M29,11 C26.2385763,11 24,13.2385763 24,16 C24,18.7614237 26.2385763,21 29,21 C31.7614237,21 34,18.7614237 34,16 C34,13.2385763 31.7614237,11 29,11 L29,11 Z M27.330127,23.8923048 C25.9494151,21.5008417 22.8914631,20.681466 20.5,22.0621778 C18.1085369,23.4428897 17.2891611,26.5008417 18.669873,28.8923048 C20.0505849,31.283768 23.1085369,32.1031437 25.5,30.7224319 C27.8914631,29.34172 28.7108389,26.283768 27.330127,23.8923048 L27.330127,23.8923048 Z M15.330127,28.8923048 C16.7108389,26.5008417 15.8914631,23.4428897 13.5,22.0621778 C11.1085369,20.681466 8.05058486,21.5008417 6.66987298,23.8923048 C5.28916111,26.283768 6.10853688,29.34172 8.5,30.7224319 C10.8914631,32.1031437 13.9494151,31.283768 15.330127,28.8923048 L15.330127,28.8923048 Z M17,21 C19.7614237,21 22,18.7614237 22,16 C22,13.2385763 19.7614237,11 17,11 C14.2385763,11 12,13.2385763 12,16 C12,18.7614237 14.2385763,21 17,21 L17,21 Z" id="Combined-Shape"></path>
                </g>
                <g id="blank-text" transform="translate(4.000000, 21.000000)" stroke="#979797" stroke-linecap="square">
                    <path d="M7.40460325e-14,1.5 L41,1.5" id="Line-Copy-2"></path>
                    <path d="M7.40460325e-14,4.5 L41,4.5" id="Line-Copy-3"></path>
                    <path d="M7.40460325e-14,7.5 L41,7.5" id="Line-Copy-4"></path>
                    <path d="M2.48689958e-14,10.5 L41,10.5" id="Line-Copy-5"></path>
                </g>
            </g>
        </g>
    </g>
</svg>