<svg xmlns="http://www.w3.org/2000/svg" width="176" height="59" viewBox="0 0 176 59">
  <g fill="none" fill-rule="evenodd">
    <path fill="#FFFFFF" d="M36.998,23.344 C37.337,23.162 37.463,22.739 37.28,22.4 C37.098,22.061 36.675,21.935 36.337,22.118 L25.627,27.894 L14.918,22.118 C14.578,21.935 14.156,22.061 13.974,22.4 C13.791,22.739 13.917,23.162 14.256,23.344 L24.93,29.101 L24.93,43.207 C24.93,43.592 25.242,43.904 25.627,43.904 C26.012,43.904 26.324,43.592 26.324,43.207 L26.324,29.101 L36.998,23.344"/>
    <polyline fill="#238EC2" points="24.98 11.031 24.98 .572 .619 14.638 9.681 19.865 24.98 11.031"/>
    <polyline fill="#238EC2" points="9.058 20.982 0 15.757 0 43.834 9.058 38.609 9.058 20.982"/>
    <polyline fill="#238EC2" points=".634 44.944 24.98 59 24.98 48.541 9.696 39.717 .634 44.944"/>
    <polyline fill="#238EC2" points="26.292 48.541 26.292 59 50.634 44.946 41.573 39.719 26.292 48.541"/>
    <polyline fill="#FFFFFF" points="42.215 20.978 42.215 38.613 51.272 43.838 51.272 15.753 42.215 20.978"/>
    <polyline fill="#238EC2" points="50.65 14.636 26.292 .572 26.292 11.031 41.589 19.863 50.65 14.636"/>
    <polyline fill="#FFFFFF" points="75.171 7.041 75.171 8.461 64.731 8.461 64.731 16.183 73.905 16.183 73.905 17.666 64.731 17.666 64.731 26.902 63.217 26.902 63.217 7.041 75.171 7.041"/>
    <path fill="#FFFFFF" d="M77.767 14.083L77.767 26.902 76.253 26.902 76.253 13.095C77.118 12.724 79.867 11.705 83.296 11.674L83.296 13.157C80.949 13.219 78.941 13.743 77.767 14.083M84.902 18.933L94.879 18.933C94.879 18.191 94.694 13.126 89.906 13.126 86.663 13.126 85.057 15.288 84.902 18.933zM96.455 19.489C96.455 20.168 96.424 20.261 96.424 20.291L84.902 20.291C84.933 20.817 85.026 21.249 85.18 21.62 85.613 24.523 87.651 25.635 90.555 25.635 92.378 25.635 94.199 25.265 95.435 24.585L95.435 26.16C94.045 26.809 92.13 27.118 90.432 27.118 87.034 27.118 83.327 25.666 83.327 19.705 83.327 17.326 84.068 11.674 89.999 11.674 96.393 11.674 96.455 18.5 96.455 19.489L96.455 19.489zM99.514 18.933L109.491 18.933C109.491 18.191 109.306 13.126 104.518 13.126 101.275 13.126 99.669 15.288 99.514 18.933zM111.066 19.489C111.066 20.168 111.035 20.261 111.035 20.291L99.514 20.291C99.545 20.817 99.638 21.249 99.792 21.62 100.224 24.523 102.263 25.635 105.167 25.635 106.989 25.635 108.811 25.265 110.047 24.585L110.047 26.16C108.657 26.809 106.742 27.118 105.043 27.118 101.645 27.118 97.939 25.666 97.939 19.705 97.939 17.326 98.68 11.674 104.61 11.674 111.004 11.674 111.066 18.5 111.066 19.489L111.066 19.489z"/>
    <polyline fill="#FFFFFF" points="113.443 26.902 113.443 6.298 117.651 6.298 128.239 21.562 128.239 6.298 131.95 6.298 131.95 26.902 127.802 26.902 117.153 11.516 117.153 26.902 113.443 26.902"/>
    <path fill="#FFFFFF" d="M141.092 18.59L147.246 18.59 144.184 10.506 141.092 18.59zM133.958 26.902L142.148 6.298 146.22 6.298 154.411 26.902 150.429 26.902 148.543 21.954 139.825 21.954 137.94 26.902 133.958 26.902 133.958 26.902zM155.226 12.044C155.226 10.064 155.925 8.57 157.323 7.565 158.721 6.56 160.47 6.056 162.572 6.056 164.422 6.056 166.268 6.529 168.108 7.474L168.108 11.079C166.519 10.034 164.819 9.51 163.01 9.51 161.873 9.51 160.91 9.707 160.121 10.099 159.331 10.491 158.937 11.109 158.937 11.954 158.937 12.638 159.296 13.173 160.015 13.561 160.734 13.947 161.604 14.274 162.625 14.541 163.645 14.807 164.671 15.142 165.702 15.544 166.732 15.946 167.607 16.643 168.326 17.633 169.045 18.623 169.405 19.903 169.405 21.471 169.405 23.141 168.716 24.503 167.338 25.559 165.96 26.615 164.281 27.143 162.3 27.143 159.686 27.143 157.418 26.56 155.498 25.393L155.498 21.622C157.268 22.94 159.249 23.599 161.441 23.599 164.277 23.599 165.694 22.809 165.694 21.23 165.694 20.516 165.438 19.923 164.925 19.451 164.412 18.978 163.764 18.628 162.979 18.402 162.195 18.176 161.355 17.91 160.46 17.603 159.565 17.296 158.726 16.962 157.942 16.6 157.157 16.238 156.509 15.672 155.996 14.903 155.483 14.134 155.226 13.181 155.226 12.044"/>
    <polyline fill="#FFFFFF" points="170.916 51.032 171.785 51.032 171.785 53.359 172.135 53.359 172.135 51.032 173.008 51.032 173.008 50.72 170.916 50.72 170.916 51.032"/>
    <path fill="#FFFFFF" d="M175.404 50.72L174.772 52.556C174.708 52.742 174.662 52.883 174.632 52.979 174.605 52.893 174.563 52.763 174.506 52.589L173.881 50.72 173.355 50.72 173.355 53.359 173.692 53.359 173.692 51.112 174.455 53.359 174.77 53.359 175.537 51.151 175.537 53.359 175.874 53.359 175.874 50.72 175.404 50.72M121.646 48.994C121.646 50.479 120.453 51.687 118.986 51.687L116.676 51.687C115.209 51.687 114.016 50.479 114.016 48.994L114.016 41.648C114.016 40.499 114.936 39.565 116.067 39.565L119.595 39.565C120.745 39.565 121.646 40.48 121.646 41.648L121.646 48.994zM119.595 37.892L116.067 37.892C113.837 37.892 112.022 39.706 112.022 41.936L112.022 48.673C112.022 51.301 114.066 53.359 116.676 53.359L118.986 53.359C121.596 53.359 123.64 51.301 123.64 48.673L123.64 41.936C123.64 39.706 121.825 37.892 119.595 37.892L119.595 37.892zM129.708 39.252L129.708 37.892 127.743 38.598 127.743 53.359 129.736 53.359 129.736 43.38C129.736 41.276 131.448 39.565 133.552 39.565L137.115 39.565 137.115 37.892 133.552 37.892C132.21 37.892 130.636 38.324 129.708 39.252M142.541 39.252L142.541 37.892 140.576 38.598 140.576 53.359 142.569 53.359 142.569 43.38C142.569 41.276 144.281 39.565 146.385 39.565L149.948 39.565 149.948 37.892 146.385 37.892C145.043 37.892 143.469 38.324 142.541 39.252M161.108 51.687L155.849 51.687C154.699 51.687 153.798 50.631 153.798 49.283 153.798 48.156 154.49 47.219 155.521 46.952L161.108 45.581 161.108 51.687zM159.057 37.892L153.088 37.892 153.088 39.565 159.057 39.565C160.188 39.565 161.108 40.485 161.108 41.616L161.108 43.895 155.114 45.327C153.228 45.791 151.805 47.492 151.805 49.283 151.805 51.607 153.543 53.359 155.849 53.359L163.102 53.359 163.102 41.904C163.102 39.654 161.325 37.892 159.057 37.892L159.057 37.892z"/>
    <polygon fill="#FFFFFF" points="167.525 53.359 169.519 53.359 169.519 31.476 167.525 31.476"/>
    <path fill="#FFFFFF" d="M98.384,41.943 L98.384,47.701 C98.384,50.741 100.858,53.215 103.899,53.215 L108.591,53.215 L108.591,51.55 L103.899,51.55 C101.984,51.55 100.366,49.917 100.366,47.985 L100.366,41.658 C100.366,40.53 101.284,39.612 102.412,39.612 L108.591,39.612 L108.591,37.947 L102.412,37.947 C100.154,37.947 98.384,39.703 98.384,41.943"/>
  </g>
</svg>
